{
    "asset" : {
        "generator" : "Khronos glTF Blender I/O v1.4.40",
        "version" : "2.0"
    },
    "scene" : 0,
    "scenes" : [
        {
            "name" : "Scene",
            "nodes" : [
                0,
                1,
                2
            ]
        }
    ],
    "nodes" : [
        {
            "name" : "Light",
            "rotation" : [
                0.16907575726509094,
                0.7558803558349609,
                -0.27217137813568115,
                0.570947527885437
            ],
            "translation" : [
                4.076245307922363,
                5.903861999511719,
                -1.0054539442062378
            ]
        },
        {
            "name" : "Camera",
            "rotation" : [
                0.483536034822464,
                0.33687159419059753,
                -0.20870360732078552,
                0.7804827094078064
            ],
            "translation" : [
                7.358891487121582,
                4.958309173583984,
                6.925790786743164
            ]
        },
        {
            "mesh" : 0,
            "name" : "12248_Bird_v1_L2",
            "rotation" : [
                -0.014498084783554077,
                0,
                0,
                0.999894917011261
            ],
            "scale" : [
                0.04298650100827217,
                0.04298650100827217,
                0.04298650100827217
            ]
        }
    ],
    "materials" : [
        {
            "doubleSided" : true,
            "name" : "12248_Bird_v1",
            "pbrMetallicRoughness" : {
                "baseColorTexture" : {
                    "index" : 0,
                    "texCoord" : 0
                },
                "metallicFactor" : 0,
                "roughnessFactor" : 0.8236165642738342
            }
        }
    ],
    "meshes" : [
        {
            "name" : "12248_Bird_v1_L2",
            "primitives" : [
                {
                    "attributes" : {
                        "POSITION" : 0,
                        "NORMAL" : 1,
                        "TEXCOORD_0" : 2
                    },
                    "indices" : 3,
                    "material" : 0
                }
            ]
        }
    ],
    "textures" : [
        {
            "sampler" : 0,
            "source" : 0
        }
    ],
    "images" : [
        {
            "mimeType" : "image/jpeg",
            "name" : "12248_Bird_v1_diff",
            "uri" : "12248_Bird_v1_diff.jpg"
        }
    ],
    "accessors" : [
        {
            "bufferView" : 0,
            "componentType" : 5126,
            "count" : 9582,
            "max" : [
                14.22700023651123,
                56.805599212646484,
                20.123300552368164
            ],
            "min" : [
                -14.22700023651123,
                0.3366999924182892,
                -36.38399887084961
            ],
            "type" : "VEC3"
        },
        {
            "bufferView" : 1,
            "componentType" : 5126,
            "count" : 9582,
            "type" : "VEC3"
        },
        {
            "bufferView" : 2,
            "componentType" : 5126,
            "count" : 9582,
            "type" : "VEC2"
        },
        {
            "bufferView" : 3,
            "componentType" : 5123,
            "count" : 52512,
            "type" : "SCALAR"
        }
    ],
    "bufferViews" : [
        {
            "buffer" : 0,
            "byteLength" : 114984,
            "byteOffset" : 0
        },
        {
            "buffer" : 0,
            "byteLength" : 114984,
            "byteOffset" : 114984
        },
        {
            "buffer" : 0,
            "byteLength" : 76656,
            "byteOffset" : 229968
        },
        {
            "buffer" : 0,
            "byteLength" : 105024,
            "byteOffset" : 306624
        }
    ],
    "samplers" : [
        {
            "magFilter" : 9729,
            "minFilter" : 9986
        }
    ],
    "buffers" : [
        {
            "byteLength" : 411648,
            "uri" : "duck.bin"
        }
    ]
}
