{
    "asset" : {
        "generator" : "Khronos glTF Blender I/O v1.4.40",
        "version" : "2.0"
    },
    "scene" : 0,
    "scenes" : [
        {
            "name" : "Scene",
            "nodes" : [
                0,
                1,
                2
            ]
        }
    ],
    "nodes" : [
        {
            "name" : "Light",
            "rotation" : [
                0.16907575726509094,
                0.7558803558349609,
                -0.27217137813568115,
                0.570947527885437
            ],
            "translation" : [
                4.076245307922363,
                5.903861999511719,
                -1.0054539442062378
            ]
        },
        {
            "name" : "Camera",
            "rotation" : [
                0.483536034822464,
                0.33687159419059753,
                -0.20870360732078552,
                0.7804827094078064
            ],
            "translation" : [
                7.358891487121582,
                4.958309173583984,
                6.925790786743164
            ]
        },
        {
            "mesh" : 0,
            "name" : "12214_Bird_v1max_l3",
            "rotation" : [
                -0.007329553831368685,
                0.5405452847480774,
                0.014750045724213123,
                0.8411536812782288
            ],
            "scale" : [
                0.05157439410686493,
                0.051574401557445526,
                0.051574401557445526
            ]
        }
    ],
    "materials" : [
        {
            "doubleSided" : true,
            "name" : "12214_bird",
            "normalTexture" : {
                "index" : 0,
                "texCoord" : 0
            },
            "pbrMetallicRoughness" : {
                "baseColorTexture" : {
                    "index" : 1,
                    "texCoord" : 0
                },
                "metallicFactor" : 0,
                "roughnessFactor" : 0.8945907354354858
            }
        }
    ],
    "meshes" : [
        {
            "name" : "12214_Bird_v1max_l3",
            "primitives" : [
                {
                    "attributes" : {
                        "POSITION" : 0,
                        "NORMAL" : 1,
                        "TEXCOORD_0" : 2
                    },
                    "indices" : 3,
                    "material" : 0
                }
            ]
        }
    ],
    "textures" : [
        {
            "sampler" : 0,
            "source" : 0
        },
        {
            "sampler" : 0,
            "source" : 1
        }
    ],
    "images" : [
        {
            "mimeType" : "image/jpeg",
            "name" : "Map__7_Normal Bump",
            "uri" : "Map__7_Normal%20Bump.jpg"
        },
        {
            "mimeType" : "image/jpeg",
            "name" : "12214_Bird_diffuse",
            "uri" : "12214_Bird_diffuse.jpg"
        }
    ],
    "accessors" : [
        {
            "bufferView" : 0,
            "componentType" : 5126,
            "count" : 64698,
            "max" : [
                6.457200050354004,
                9.178500175476074,
                3.0529000759124756
            ],
            "min" : [
                -7.712600231170654,
                0.009499999694526196,
                -3.0566999912261963
            ],
            "type" : "VEC3"
        },
        {
            "bufferView" : 1,
            "componentType" : 5126,
            "count" : 64698,
            "type" : "VEC3"
        },
        {
            "bufferView" : 2,
            "componentType" : 5126,
            "count" : 64698,
            "type" : "VEC2"
        },
        {
            "bufferView" : 3,
            "componentType" : 5123,
            "count" : 374016,
            "type" : "SCALAR"
        }
    ],
    "bufferViews" : [
        {
            "buffer" : 0,
            "byteLength" : 776376,
            "byteOffset" : 0
        },
        {
            "buffer" : 0,
            "byteLength" : 776376,
            "byteOffset" : 776376
        },
        {
            "buffer" : 0,
            "byteLength" : 517584,
            "byteOffset" : 1552752
        },
        {
            "buffer" : 0,
            "byteLength" : 748032,
            "byteOffset" : 2070336
        }
    ],
    "samplers" : [
        {
            "magFilter" : 9729,
            "minFilter" : 9986
        }
    ],
    "buffers" : [
        {
            "byteLength" : 2818368,
            "uri" : "yellowbird.bin"
        }
    ]
}
